<svg
 xmlns="http://www.w3.org/2000/svg"
 xmlns:xlink="http://www.w3.org/1999/xlink"
 width="400px" height="200px">
<defs>
<linearGradient id="PSgrad_0" x1="100%" x2="0%" y1="0%" y2="0%">
  <stop offset="0%" stop-color="rgb(0,0,0)" stop-opacity="0.8" />
  <stop offset="0%" stop-color="rgb(140,224,255)" stop-opacity="0.8" />
  <stop offset="100%" stop-color="rgb(66,152,255)" stop-opacity="0.8" />
</linearGradient>

</defs>
<path fill-rule="evenodd"  opacity="0.2" fill="rgb(255, 255, 255)"
 d="M11.1000,-0.000 L478.1000,-0.000 C485.627,-0.000 490.1000,5.373 490.1000,11.1000 L490.1000,199.1000 C490.1000,206.627 485.627,211.1000 478.1000,211.1000 L11.1000,211.1000 C5.373,211.1000 -0.000,206.627 -0.000,199.1000 L-0.000,11.1000 C-0.000,5.373 5.373,-0.000 11.1000,-0.000 Z"/>
<path fill="url(#PSgrad_0)"
 d="M11.1000,-0.000 L478.1000,-0.000 C485.627,-0.000 490.1000,5.373 490.1000,11.1000 L490.1000,199.1000 C490.1000,206.627 485.627,211.1000 478.1000,211.1000 L11.1000,211.1000 C5.373,211.1000 -0.000,206.627 -0.000,199.1000 L-0.000,11.1000 C-0.000,5.373 5.373,-0.000 11.1000,-0.000 Z"/>
</svg>
